<?xml version="1.0" standalone="no"?>
<!DOCTYPE svg PUBLIC "-//W3C//DTD SVG 20010904//EN"
 "http://www.w3.org/TR/2001/REC-SVG-20010904/DTD/svg10.dtd">
<svg version="1.0" xmlns="http://www.w3.org/2000/svg"
 width="1024.000000pt" height="1024.000000pt" viewBox="0 0 1024.000000 1024.000000"
 preserveAspectRatio="xMidYMid meet">
<metadata>
Created by potrace 1.14, written by Peter Selinger 2001-2017
</metadata>
<g transform="translate(0.000000,1024.000000) scale(0.100000,-0.100000)"
fill="#000000" stroke="none">
<path d="M0 5120 l0 -5120 5120 0 5120 0 0 5120 0 5120 -5120 0 -5120 0 0
-5120z m5790 1976 c265 -62 457 -164 628 -334 180 -178 291 -393 343 -666 28
-146 23 -416 -10 -575 -55 -261 -176 -529 -345 -763 -22 -32 -45 -58 -49 -58
-4 0 -19 24 -32 53 l-25 53 73 110 c151 229 245 472 283 726 20 134 15 352
-10 466 -104 474 -440 795 -931 888 -130 25 -374 23 -527 -5 -236 -42 -519
-158 -738 -303 l-95 -62 -83 -1 -84 0 49 43 c144 128 435 290 645 360 245 81
380 102 628 97 142 -3 195 -9 280 -29z m-535 -635 c98 -33 154 -63 202 -109
144 -140 163 -366 46 -560 -69 -114 -170 -199 -308 -257 l-66 -28 69 -27 c123
-48 202 -122 238 -222 23 -65 20 -200 -6 -278 -83 -245 -325 -422 -651 -475
-72 -11 -179 -15 -450 -15 -353 0 -356 0 -389 23 -49 33 -72 70 -77 124 -5 49
2 81 217 1003 148 635 144 615 130 677 -15 70 -69 128 -135 145 -25 7 -45 16
-45 21 0 5 257 7 578 5 572 -4 578 -4 647 -27z m722 4 c296 -51 433 -177 433
-397 0 -193 -85 -378 -231 -503 -62 -53 -182 -116 -258 -136 -28 -7 -51 -16
-51 -20 0 -9 96 -208 289 -603 83 -169 151 -310 151 -312 0 -2 -75 -4 -168 -4
l-167 0 -135 283 c-278 584 -307 643 -338 678 l-31 36 108 7 c125 7 197 26
263 67 196 125 306 466 213 663 -53 112 -157 166 -322 166 l-98 1 -55 51 -55
51 182 -7 c101 -3 222 -13 270 -21z m-1975 -144 l28 -6 -41 -47 c-69 -81 -186
-264 -243 -381 -240 -493 -233 -1017 19 -1391 63 -94 201 -233 292 -295 134
-90 294 -152 478 -187 130 -24 364 -22 519 5 230 41 511 155 711 290 l90 61
90 -1 90 0 -35 -30 c-72 -63 -276 -192 -399 -253 -372 -183 -767 -245 -1125
-176 -523 102 -896 474 -997 994 -25 130 -27 370 -3 512 49 297 178 596 367
847 49 64 53 67 91 66 23 -1 53 -4 68 -8z m-172 -2741 c64 -12 86 -30 101 -81
14 -46 7 -78 -27 -118 l-26 -31 26 -21 c53 -41 43 -153 -17 -189 -28 -18 -51
-20 -199 -20 l-168 0 0 228 c0 126 3 232 7 235 10 11 244 8 303 -3z m1030
-130 c0 -77 4 -140 8 -140 5 0 39 34 76 75 l67 75 56 0 55 0 -77 -85 -77 -85
77 -85 77 -85 -60 0 -60 0 -69 83 -68 82 -3 -82 -3 -83 -44 0 -45 0 0 228 c0
126 3 232 7 235 3 4 24 7 45 7 l38 0 0 -140z m658 116 c79 -42 83 -197 6 -236
-16 -8 -31 -15 -32 -16 -4 -2 63 -120 96 -171 14 -23 14 -23 -41 -23 l-55 0
-51 90 -52 90 -60 0 -59 0 0 -90 0 -90 -49 0 -50 0 -1 228 c0 126 3 232 7 236
5 4 76 6 158 4 119 -3 157 -7 183 -22z m972 -123 l0 -148 78 83 77 83 54 -1
53 0 -76 -81 c-42 -45 -76 -85 -74 -90 2 -4 36 -44 76 -88 l73 -81 -59 0 -60
0 -69 82 -68 82 -3 -82 -3 -82 -44 0 -43 0 -1 226 c-1 124 1 229 4 235 4 5 24
9 46 9 l39 0 0 -147z m-618 17 c107 -30 156 -142 109 -245 -35 -79 -102 -113
-198 -102 -176 19 -205 283 -38 342 48 17 78 18 127 5z m-1598 -14 c59 -25 66
-45 66 -193 l0 -133 -143 0 c-160 0 -177 6 -197 64 -14 45 -2 94 31 118 19 15
50 21 122 25 101 6 114 14 81 47 -12 12 -38 16 -115 16 l-99 0 0 35 0 35 110
0 c72 0 122 -5 144 -14z m436 -20 l0 -33 -81 -5 c-92 -5 -116 -21 -126 -81 -7
-46 11 -91 43 -106 14 -6 56 -11 94 -11 l70 0 0 -35 0 -35 -93 0 c-101 0 -145
15 -180 62 -45 60 -39 184 11 230 39 36 75 46 175 47 l87 1 0 -34z m1630 0 l0
-34 -80 -4 c-103 -4 -125 -22 -125 -103 0 -78 15 -89 120 -94 l85 -3 0 -34 0
-34 -92 0 c-107 0 -150 16 -184 67 -48 72 -37 184 22 231 44 35 62 40 167 41
l87 1 0 -34z"/>
<path d="M4630 6367 c-73 -38 -104 -88 -134 -219 -23 -98 -233 -1009 -288
-1248 -32 -139 -5 -230 84 -280 41 -24 51 -25 198 -25 134 0 165 3 230 23 168
53 279 141 344 273 113 230 69 426 -116 520 -77 39 -166 59 -266 59 -79 0 -83
1 -92 26 -6 14 -10 35 -10 47 0 21 4 22 62 19 35 -2 111 1 169 6 91 8 118 14
183 45 108 51 187 128 236 232 62 131 73 240 35 355 -22 67 -67 115 -143 152
l-66 33 -191 3 c-184 3 -191 3 -235 -21z"/>
<path d="M3620 3445 l0 -55 78 0 c91 0 126 14 130 53 6 49 -11 57 -114 57
l-94 0 0 -55z"/>
<path d="M3620 3255 l0 -55 93 0 c104 0 117 7 117 57 0 44 -21 53 -124 53
l-86 0 0 -55z"/>
<path d="M5272 3443 l3 -58 86 0 c98 0 119 11 119 59 0 49 -14 56 -117 56
l-94 0 3 -57z"/>
<path d="M5760 3372 c-34 -27 -40 -117 -11 -153 51 -65 145 -36 152 46 4 51
-3 78 -26 100 -29 30 -83 33 -115 7z"/>
<path d="M4103 3253 c-20 -7 -15 -51 6 -63 11 -5 47 -10 80 -10 l61 0 0 40 0
40 -67 -1 c-38 0 -74 -3 -80 -6z"/>
</g>
</svg>
